HIERARCHY
ROOT Hips
{
	OFFSET 0.000000 0.000000 0.000000
	CHANNELS 6 Xposition Yposition Zposition Zrotation Yrotation Xrotation 
	JOINT LHipJoint
	{
		OFFSET 0.000000 0.000000 0.000000
		CHANNELS 3 Zrotation Yrotation Xrotation
		JOINT LeftUpLeg
		{
			OFFSET 1.363060 -1.794630 0.839290
			CHANNELS 3 Zrotation Yrotation Xrotation
			JOINT LeftLeg
			{
				OFFSET 2.448110 -6.726130 0.000000
				CHANNELS 3 Zrotation Yrotation Xrotation
				JOINT LeftFoot
				{
					OFFSET 2.562200 -7.039590 0.000000
					CHANNELS 3 Zrotation Yrotation Xrotation
					JOINT LeftToeBase
					{
						OFFSET 0.157640 -0.433110 2.322550
						CHANNELS 3 Zrotation Yrotation Xrotation
						End Site
						{
							OFFSET 0.000000 0.000000 0.000000
						}
					}
				}
			}
		}
	}
	JOINT RHipJoint
	{
		OFFSET 0.000000 0.000000 0.000000
		CHANNELS 3 Zrotation Yrotation Xrotation
		JOINT RightUpLeg
		{
			OFFSET -1.305520 -1.794630 0.839290
			CHANNELS 3 Zrotation Yrotation Xrotation
			JOINT RightLeg
			{
				OFFSET -2.542530 -6.985550 0.000000
				CHANNELS 3 Zrotation Yrotation Xrotation
				JOINT RightFoot
				{
					OFFSET -2.568260 -7.056230 0.000000
					CHANNELS 3 Zrotation Yrotation Xrotation
					JOINT RightToeBase
					{
						OFFSET -0.164730 -0.452590 2.363150
						CHANNELS 3 Zrotation Yrotation Xrotation
						End Site
						{
							OFFSET 0.000000 0.000000 0.000000
						}
					}
				}
			}
		}
	}
	JOINT LowerBack
	{
		OFFSET 0.000000 0.000000 0.000000
		CHANNELS 3 Zrotation Yrotation Xrotation
		JOINT Spine
		{
			OFFSET 0.028270 2.035590 -0.193380
			CHANNELS 3 Zrotation Yrotation Xrotation
			JOINT Spine1
			{
				OFFSET 0.056720 2.048850 -0.042750
				CHANNELS 3 Zrotation Yrotation Xrotation
				JOINT Neck
				{
					OFFSET 0.000000 0.000000 0.000000
					CHANNELS 3 Zrotation Yrotation Xrotation
					JOINT Neck1
					{
						OFFSET -0.054170 1.746240 0.172020
						CHANNELS 3 Zrotation Yrotation Xrotation
						JOINT Head
						{
							OFFSET 0.104070 1.761360 -0.123970
							CHANNELS 3 Zrotation Yrotation Xrotation
							End Site
							{
								OFFSET 0.000000 0.000000 0.000000
							}
						}
					}
				}
				JOINT LeftShoulder
				{
					OFFSET 0.000000 0.000000 0.000000
					CHANNELS 3 Zrotation Yrotation Xrotation
					JOINT LeftArm
					{
						OFFSET 3.362410 1.200890 -0.311210
						CHANNELS 3 Zrotation Yrotation Xrotation
						JOINT LeftForeArm
						{
							OFFSET 4.983000 -0.000000 -0.000000
							CHANNELS 3 Zrotation Yrotation Xrotation
							JOINT LeftHand
							{
								OFFSET 3.483560 -0.000000 -0.000000
								CHANNELS 3 Zrotation Yrotation Xrotation
								JOINT LeftFingerBase
								{
									OFFSET 0.000000 0.000000 0.000000
									CHANNELS 3 Zrotation Yrotation Xrotation
									JOINT LeftHandIndex1
									{
										OFFSET 0.715260 -0.000000 -0.000000
										CHANNELS 3 Zrotation Yrotation Xrotation
										End Site
										{
											OFFSET 0.000000 0.000000 0.000000
										}
									}
								}
								JOINT LThumb
								{
									OFFSET 0.000000 0.000000 0.000000
									CHANNELS 3 Zrotation Yrotation Xrotation
									End Site
									{
										OFFSET 0.000000 0.000000 0.000000
									}
								}
							}
						}
					}
				}
				JOINT RightShoulder
				{
					OFFSET 0.000000 0.000000 0.000000
					CHANNELS 3 Zrotation Yrotation Xrotation
					JOINT RightArm
					{
						OFFSET -3.136600 1.374050 -0.404650
						CHANNELS 3 Zrotation Yrotation Xrotation
						JOINT RightForeArm
						{
							OFFSET -5.241900 -0.000000 -0.000000
							CHANNELS 3 Zrotation Yrotation Xrotation
							JOINT RightHand
							{
								OFFSET -3.444170 -0.000000 -0.000000
								CHANNELS 3 Zrotation Yrotation Xrotation
								JOINT RightFingerBase
								{
									OFFSET 0.000000 0.000000 0.000000
									CHANNELS 3 Zrotation Yrotation Xrotation
									JOINT RightHandIndex1
									{
										OFFSET -0.622530 -0.000000 -0.000000
										CHANNELS 3 Zrotation Yrotation Xrotation
										End Site
										{
											OFFSET 0.000000 0.000000 0.000000
										}
									}
								}
								JOINT RThumb
								{
									OFFSET 0.000000 0.000000 0.000000
									CHANNELS 3 Zrotation Yrotation Xrotation
									End Site
									{
										OFFSET 0.000000 0.000000 0.000000
									}
								}
							}
						}
					}
				}
			}
		}
	}
}
MOTION
Frames: 6
Frame Time: 0.008333
0.391188 17.793002 -30.429607 -2.472183 -2.555401 5.465025 -6.493421 -1.906181 1.235242 -7.683443 -2.064911 -11.508994 1.002486 10.105308 26.528780 -6.090489 21.585189 -6.371115 0.210100 -2.951400 -8.143300 4.900348 1.965069 -0.063657 12.319119 4.359815 -13.681896 -2.059321 -11.149521 30.327169 4.275223 -17.039537 -7.073679 -0.067800 1.679500 -4.620600 1.187691 -3.338926 2.081512 3.424426 -4.473737 -2.579966 3.091837 -2.326601 -1.272646 9.496672 2.890242 -17.667443 -5.122919 3.275326 23.494294 -6.641200 2.249900 15.010700 3.753320 -1.047010 0.012957 -90.544832 5.028908 20.114793 18.099127 -28.131467 -4.285252 0.144846 0.341331 -7.795326 12.439100 0.600287 0.059500 -7.125000 0.000000 0.000000 -11.262200 30.156500 4.152300 -2.678665 1.772551 0.063963 84.079237 -3.006999 17.575567 -15.216362 24.750421 -3.320016 0.138858 -0.433815 -6.852206 -14.103891 -1.785541 0.334700 7.125000 0.000000 0.000000 9.860300 -31.252200 3.357800 
0.388886 17.792602 -30.429407 -2.425674 -2.565438 5.480426 -6.493268 -1.907156 1.234256 -7.726564 -2.049735 -11.519990 0.997591 10.099519 26.509160 -6.086791 21.576695 -6.358842 0.211400 -2.959900 -8.167000 4.901447 1.969321 -0.067467 12.268542 4.352482 -13.719782 -2.067767 -11.160476 30.367573 4.269351 -17.018220 -7.092652 -0.067600 1.677800 -4.616100 1.185056 -3.252107 2.117655 3.332338 -4.355162 -2.568236 2.967955 -2.268958 -1.292671 9.325982 2.636903 -17.756038 -4.900682 2.909171 23.562091 -6.559100 2.105900 14.988600 3.744585 -1.028712 0.005850 -90.296250 4.959160 20.501822 18.081945 -28.102551 -4.275948 0.144610 0.342354 -7.866022 12.452097 0.646800 0.069500 -7.125000 0.000000 0.000000 -11.257600 30.202500 4.137900 -2.694097 1.789169 0.063014 84.311323 -3.056433 17.209651 -15.196154 24.733504 -3.315020 0.138495 -0.434771 -6.760010 -14.112440 -1.806658 0.340000 7.125000 0.000000 0.000000 9.855600 -31.273100 3.351100 
0.386385 17.792001 -30.429006 -2.375302 -2.575099 5.494179 -6.492858 -1.908136 1.233194 -7.773432 -2.031721 -11.531459 0.993162 10.094673 26.491772 -6.082251 21.566166 -6.344763 0.212800 -2.969800 -8.194700 4.902610 1.973746 -0.071065 12.214318 4.340073 -13.756842 -2.076285 -11.171072 30.406687 4.263416 -16.996463 -7.105469 -0.067700 1.678800 -4.618800 1.184711 -3.158200 2.157327 3.233742 -4.226781 -2.556294 2.834017 -2.206498 -1.315570 9.129671 2.358555 -17.841159 -4.660780 2.512243 23.631412 -6.467800 1.948700 14.962000 3.734975 -1.008768 -0.001663 -90.034140 4.887896 20.916544 18.068205 -28.077252 -4.267831 0.143693 0.343704 -7.937904 12.443473 0.718594 0.084800 -7.125000 0.000000 0.000000 -11.272400 30.273400 4.124100 -2.710788 1.807334 0.062123 84.561413 -3.107703 16.810361 -15.177443 24.719099 -3.310691 0.137875 -0.435727 -6.661381 -14.110492 -1.808806 0.340300 7.125000 0.000000 0.000000 9.857200 -31.274400 3.351400 
0.383582 17.791401 -30.428806 -2.333305 -2.581563 5.502601 -6.494556 -1.909845 1.234003 -7.805967 -2.008149 -11.542145 0.989757 10.089868 26.476850 -6.076318 21.549817 -6.327421 0.213700 -2.976000 -8.211800 4.901140 1.975376 -0.073152 12.176007 4.331304 -13.788291 -2.084070 -11.181288 30.443296 4.259813 -16.982941 -7.115681 -0.068000 1.681800 -4.627100 1.147459 -3.169907 2.195720 3.226106 -4.241971 -2.552750 2.846554 -2.214046 -1.327581 9.113191 2.353729 -17.845775 -4.640896 2.507214 23.635953 -6.456000 1.947000 14.963500 3.734249 -1.007557 -0.001967 -90.017959 4.874246 20.942205 18.073274 -28.083372 -4.269805 0.142574 0.345032 -7.955177 12.424844 0.790069 0.099900 -7.125000 0.000000 0.000000 -11.294600 30.343400 4.113200 -2.711980 1.808802 0.062297 84.577322 -3.108738 16.792488 -15.149514 24.683161 -3.299925 0.137327 -0.435491 -6.605817 -14.104477 -1.799595 0.338000 7.125000 0.000000 0.000000 9.861100 -31.265400 3.354900 
0.380180 17.791000 -30.428606 -2.294605 -2.575549 5.509767 -6.501639 -1.914045 1.237101 -7.825239 -1.988119 -11.555466 0.987615 10.084704 26.464599 -6.069199 21.527961 -6.304246 0.214000 -2.978100 -8.217900 4.894917 1.971815 -0.071492 12.150250 4.322166 -13.820086 -2.090929 -11.190691 30.476233 4.256869 -16.972748 -7.128402 -0.068000 1.682200 -4.628000 1.048088 -3.387423 2.224497 3.383265 -4.536835 -2.582304 3.120254 -2.356743 -1.338296 9.513035 2.899281 -17.670325 -5.088323 3.279127 23.530786 -6.628900 2.259800 15.031600 3.751417 -1.044625 0.011897 -90.465044 5.002783 20.224050 18.109539 -28.142806 -4.289056 0.141556 0.346202 -7.868026 12.402902 0.846728 0.111600 -7.125000 0.000000 0.000000 -11.317200 30.398200 4.106500 -2.682801 1.777547 0.064567 84.150532 -3.052729 17.516063 -15.109453 24.613037 -3.279220 0.137382 -0.433158 -6.646612 -14.099981 -1.798865 0.338200 7.125000 0.000000 0.000000 9.864800 -31.266900 3.355900 
0.376477 17.790700 -30.428406 -2.269651 -2.561284 5.521339 -6.506668 -1.917846 1.238724 -7.827793 -1.971620 -11.573167 0.986542 10.080633 26.456016 -6.060766 21.500788 -6.277013 0.213900 -2.977300 -8.215500 4.889872 1.969175 -0.070717 12.141976 4.312850 -13.851889 -2.096518 -11.198652 30.503541 4.256959 -16.972965 -7.142038 -0.068200 1.684300 -4.634000 0.976381 -3.572865 2.230125 3.514863 -4.789021 -2.593084 3.339574 -2.479650 -1.316891 9.860677 3.359909 -17.502419 -5.466546 3.929270 23.409251 -6.774500 2.524100 15.074700 3.765967 -1.075950 0.024493 -90.834233 5.079423 19.619788 18.136883 -28.189089 -4.304032 0.141266 0.346142 -7.777903 12.386498 0.846091 0.111300 -7.125000 0.000000 0.000000 -11.329300 30.397000 4.111400 -2.658912 1.749756 0.067127 83.802746 -2.975037 18.119369 -15.072200 24.550430 -3.260900 0.137487 -0.431358 -6.688293 -14.112297 -1.806127 0.340800 7.125000 0.000000 0.000000 9.856100 -31.276300 3.350600 
